<svg xmlns="http://www.w3.org/2000/svg" x="0px" y="0px" width="auto" height="auto" fill="currentColor" viewBox="0 0 128 128">
<path d="M43.9,32.64c-2.49-0.83-5.12-0.01-6.7,2.09L25.6,50.2c-6.72,8.95-10.11,20.07-9.54,31.31 c1.25,24.56,21.49,44.53,46.08,45.46c0.63,0.02,1.25,0.04,1.88,0.04c12.49,0,24.24-4.73,33.27-13.42 C106.78,104.45,112,92.17,112,79c0-10.48-3.32-20.44-9.6-28.8c0,0-0.01-0.01-0.01-0.01L85.11,27.45 c-3.46-4.55-3.51-10.94-0.14-15.55l0.82-1.12c1.44-1.96,1.55-4.57,0.29-6.64c-1.27-2.09-3.67-3.21-6.1-2.83 C67.94,3.17,58.77,13.29,58.05,25.45C58.02,25.63,58,25.81,58,26v23c0,1.4-0.56,2.69-1.58,3.65c-1.02,0.96-2.35,1.44-3.76,1.34 C50.05,53.82,48,51.51,48,48.73V38.33C48,35.71,46.39,33.47,43.9,32.64z M52.27,59.98c3.07,0.19,6.01-0.85,8.25-2.95 c2.21-2.07,3.48-5,3.48-8.03V26.4c0.01-0.09,0.02-0.18,0.02-0.27c0.41-9.49,7.51-17.44,16.94-18.89l-0.82,1.13 c-4.93,6.73-4.85,16.08,0.2,22.72l17.27,22.72C103.1,61.12,106,69.83,106,79c0,11.52-4.57,22.27-12.87,30.26 c-8.3,7.99-19.22,12.14-30.76,11.71c-21.51-0.81-39.22-18.28-40.31-39.77c-0.5-9.84,2.46-19.57,8.34-27.4L42,38.33v10.39 C42,54.66,46.51,59.6,52.27,59.98z"></path>
</svg>