<svg xmlns="http://www.w3.org/2000/svg"  viewBox="0 0 128 128" width="auto" height="auto" fill="currentColor"><path d="M 64 15.210938 C 59.3 15.210938 55.090234 17.640938 52.740234 21.710938 L 3.2109375 107.5 C 0.8609375 111.57 0.8609375 116.43 3.2109375 120.5 C 5.5609375 124.57 9.7707031 127 14.470703 127 L 113.5293 127 C 118.2293 127 122.43906 124.57 124.78906 120.5 C 127.13906 116.43 127.13906 111.57 124.78906 107.5 L 75.259766 21.710938 C 72.909766 17.640937 68.7 15.210937 64 15.210938 z M 64 21.210938 C 66.53 21.210938 68.800547 22.520937 70.060547 24.710938 L 119.58984 110.5 C 120.85984 112.69 120.85984 115.31 119.58984 117.5 C 118.31984 119.69 116.0593 121 113.5293 121 L 14.470703 121 C 11.940703 121 9.6701563 119.69 8.4101562 117.5 C 7.1401563 115.31 7.1401563 112.69 8.4101562 110.5 L 57.939453 24.710938 C 59.209453 22.520937 61.47 21.210938 64 21.210938 z M 64 51 C 62.34 51 61 52.34 61 54 L 61 84 C 61 85.66 62.34 87 64 87 C 65.66 87 67 85.66 67 84 L 67 54 C 67 52.34 65.66 51 64 51 z M 64 96 C 62.34 96 61 97.34 61 99 L 61 104 C 61 105.66 62.34 107 64 107 C 65.66 107 67 105.66 67 104 L 67 99 C 67 97.34 65.66 96 64 96 z"/></svg>